# xmcd
#
# Track frame offsets: 
#        150
#        13660
#        28467
#        43999
#        60071
#        73343
#        88152
#        101315
#        111820
#        124581
#        138546
#        152591
#        169836
#        183829
#        199128
#        214644
#
# Disc length: 3042 seconds
#
# Revision: 1
# Processed by: cddbd v1.5.2PL0 Copyright (c) Steve Scherf et al.
# Submitted via: ExactAudioCopy v1.3
#
DISCID=df0be010
DTITLE=Sigrid and Marina - Heimatgefühle
DYEAR=2009
DGENRE=Folk
TTITLE0=Zwischen Salzburg und Bad Ischl
TTITLE1=Frauenkäferl
TTITLE2=Mariandl
TTITLE3='s mag ned hell werd'n
TTITLE4=Das Schwalbenlied
TTITLE5=Edelweiß
TTITLE6=Geiger der Berge
TTITLE7=Blumen aus den Bergen
TTITLE8=Ave Maria, wenn ich ein Glöcklein wär
TTITLE9=Für immer
TTITLE10=Wo der Wildbach rauscht
TTITLE11=Karwendellied
TTITLE12=Bei uns in Österreich
TTITLE13=Mutter ich danke dir
TTITLE14=Schau doch öfter mal nach oben
TTITLE15='s ist Feierabend
EXTD=
EXTT0=
EXTT1=
EXTT2=
EXTT3=
EXTT4=
EXTT5=
EXTT6=
EXTT7=
EXTT8=
EXTT9=
EXTT10=
EXTT11=
EXTT12=
EXTT13=
EXTT14=
EXTT15=
PLAYORDER=
